# xmcd
#
# Track frame offsets: 
#        150
#        15838
#        33865
#        56273
#        66174
#        81785
#        97094
#        116214
#        133774
#
# Disc length: 2039 seconds
#
# Revision: 0
# Processed by: cddbd v1.5.2PL0 Copyright (c) Steve Scherf et al.
# Submitted via: ExactAudioCopy v1.3
#
DISCID=6e07f509
DTITLE=The Willis Family - When God Shows Up
DYEAR=2008
DGENRE=Southern Gospel
TTITLE0=The Sun's Coming Up
TTITLE1=Thread Of Hope
TTITLE2=I Am The Water
TTITLE3=When God Shows Up
TTITLE4=I Call Him Lord
TTITLE5=I Need Thee
TTITLE6=The Greatest Love Story
TTITLE7=He Didn't Throw The Clay Away
TTITLE8=Oh, What A Savior
EXTD=
EXTT0=
EXTT1=
EXTT2=
EXTT3=
EXTT4=
EXTT5=
EXTT6=
EXTT7=
EXTT8=
PLAYORDER=
